<svg xmlns="http://www.w3.org/2000/svg" width="1472" height="1472" preserveAspectRatio="xMidYMid meet" version="1.0" viewBox="0 0 1104 1104"><metadata>Created by potrace 1.11, written by Peter Selinger 2001-2013</metadata><g fill="#000" stroke="none"><path d="M6986 10267 c-10 -34 -21 -73 -26 -87 -6 -14 -11 -34 -13 -45 -2 -11 -7 -27 -10 -35 -4 -8 -18 -58 -33 -110 -25 -91 -41 -148 -63 -218 -5 -18 -11 -36 -12 -40 -1 -4 -3 -11 -5 -17 -36 -121 -75 -264 -76 -282 -1 -7 -5 -13 -10 -13 -5 0 -6 -4 -3 -10 3 -5 3 -16 -2 -22 -4 -7 -8 -20 -10 -28 -1 -8 -11 -44 -22 -80 -16 -52 -51 -168 -67 -225 -2 -5 -5 -19 -8 -30 -2 -11 -5 -20 -6 -20 -1 0 -3 -8 -6 -17 -2 -10 -6 -26 -8 -35 -3 -10 -5 -20 -7 -23 -1 -3 -3 -9 -4 -15 -1 -5 -5 -17 -8 -25 -9 -25 -99 -333 -102 -355 -2 -11 -16 -60 -31 -110 -15 -49 -40 -135 -56 -190 -16 -55 -34 -118 -41 -140 -7 -22 -12 -42 -13 -45 0 -3 -3 -12 -7 -20 -13 -33 -26 -94 -21 -102 3 -4 1 -8 -4 -8 -7 0 -37 -94 -34 -110 0 -3 -4 -11 -10 -17 -6 -7 -8 -13 -5 -13 4 0 -8 -45 -75 -265 -17 -55 -31 -108 -31 -117 -1 -10 -6 -18 -11 -18 -5 0 -7 -3 -3 -6 3 -3 -1 -23 -8 -45 -8 -22 -14 -41 -15 -44 0 -3 -1 -7 -1 -10 -1 -3 -2 -8 -3 -12 0 -5 -6 -26 -13 -48 -44 -145 -65 -217 -68 -232 -2 -10 -8 -30 -14 -45 -6 -16 -8 -28 -5 -28 4 0 1 -6 -5 -13 -6 -8 -13 -31 -17 -52 -3 -21 -10 -50 -16 -64 -5 -14 -11 -33 -13 -41 -2 -8 -22 -78 -45 -155 -23 -77 -43 -144 -44 -150 -1 -5 -10 -37 -20 -70 -10 -33 -19 -64 -20 -70 -6 -25 -28 -101 -33 -115 -3 -8 -7 -19 -8 -25 -6 -22 -39 -136 -67 -229 -16 -55 -32 -111 -34 -124 -3 -14 -10 -35 -16 -46 -6 -12 -11 -23 -10 -26 1 -3 -3 -23 -9 -45 -6 -22 -12 -44 -13 -50 -1 -5 -7 -26 -13 -45 -6 -19 -19 -62 -28 -95 -9 -33 -20 -67 -23 -75 -3 -8 -7 -24 -9 -35 -2 -11 -7 -31 -13 -45 -8 -22 -90 -306 -152 -525 -10 -38 -21 -76 -23 -83 -3 -7 -5 -14 -5 -17 0 -3 -7 -23 -15 -45 -8 -22 -12 -40 -8 -40 3 0 0 -7 -7 -15 -6 -8 -9 -19 -5 -25 3 -5 2 -10 -3 -10 -5 0 -9 -6 -10 -12 -1 -23 -12 -67 -23 -95 -6 -16 -12 -35 -14 -43 -2 -8 -15 -55 -30 -105 -14 -49 -28 -97 -30 -105 -2 -8 -8 -27 -13 -41 -6 -14 -13 -43 -16 -64 -4 -21 -11 -44 -17 -52 -6 -7 -9 -13 -5 -13 3 0 0 -16 -8 -35 -8 -19 -13 -35 -11 -35 3 0 0 -12 -6 -27 -6 -16 -12 -35 -14 -43 -2 -8 -20 -71 -40 -140 -20 -69 -38 -132 -40 -140 -2 -8 -18 -62 -35 -120 -18 -58 -34 -112 -36 -120 -4 -17 -23 -83 -53 -185 -12 -38 -23 -79 -25 -91 -2 -11 -12 -43 -21 -70 -9 -27 -19 -58 -21 -69 -1 -11 -10 -42 -18 -70 -33 -111 -138 -471 -141 -485 -2 -8 -24 -85 -50 -170 -25 -85 -47 -162 -48 -170 -1 -8 -6 -20 -9 -26 -4 -6 -10 -25 -13 -42 -3 -17 -10 -44 -16 -59 -6 -15 -12 -36 -15 -47 -2 -10 -11 -44 -20 -75 -22 -72 -22 -70 -33 -111 -5 -19 -19 -66 -30 -105 -27 -89 -35 -117 -45 -165 -3 -11 -8 -25 -11 -30 -3 -5 -8 -18 -10 -27 -3 -19 -32 -121 -60 -213 -9 -30 -23 -76 -30 -102 l-14 -47 47 -15 c26 -8 59 -17 74 -20 15 -3 33 -8 39 -12 6 -3 25 -10 43 -15 77 -19 152 -40 166 -46 8 -3 26 -8 39 -10 14 -2 33 -9 44 -14 10 -6 31 -13 45 -15 15 -3 56 -14 92 -25 36 -11 73 -22 84 -24 10 -3 48 -13 85 -24 119 -37 273 -80 296 -85 6 -1 16 -5 23 -10 22 -13 31 4 67 130 18 65 38 134 44 152 5 18 10 35 10 37 2 10 5 23 21 75 7 25 14 50 15 55 2 6 10 35 19 65 10 30 26 89 37 130 11 41 22 82 26 90 3 8 7 20 9 25 1 6 12 42 24 80 11 39 23 84 26 100 3 17 10 37 15 46 4 9 10 27 13 40 2 13 21 80 41 149 21 69 38 130 39 135 1 6 5 15 8 21 4 6 9 21 12 35 3 13 7 34 10 46 4 13 8 31 10 40 3 10 11 37 20 61 8 23 15 43 15 45 -1 1 5 22 12 47 7 25 13 50 15 55 1 6 19 66 39 135 21 69 40 134 42 145 3 11 7 27 10 35 3 8 7 20 8 25 7 30 85 294 93 315 5 14 10 27 10 30 0 3 5 25 12 50 7 25 13 50 14 55 1 6 11 37 21 70 10 33 19 65 21 71 1 6 10 38 20 70 9 33 18 64 20 69 1 6 30 105 63 220 34 116 82 282 107 370 25 88 48 167 51 175 3 8 7 20 8 25 1 6 3 13 5 18 1 4 3 10 4 15 2 4 8 27 15 52 7 25 15 52 16 60 2 8 4 16 5 18 2 1 3 5 4 10 1 4 10 34 20 67 10 33 19 65 20 70 2 6 9 30 16 55 7 25 15 50 16 55 1 6 12 44 24 85 12 41 23 80 24 85 1 6 5 16 9 23 5 6 6 12 3 12 -3 0 -1 12 5 28 6 15 12 34 14 42 2 8 27 94 55 190 29 96 53 180 54 185 2 6 9 30 16 55 7 25 14 51 16 58 1 7 10 38 20 70 9 31 25 84 35 117 9 33 29 99 43 146 14 47 26 92 26 100 0 9 3 19 7 23 4 3 8 13 9 22 2 14 31 115 41 144 3 8 7 22 8 30 2 8 13 47 24 85 26 83 53 176 55 190 1 6 5 15 8 21 4 6 10 26 13 44 3 18 8 36 10 40 2 4 7 22 10 41 3 18 11 36 16 40 6 3 10 9 9 13 -3 10 11 79 18 91 4 5 7 15 8 20 3 16 55 199 61 215 7 18 5 11 22 80 8 30 16 60 20 65 3 6 7 17 9 25 6 29 8 35 15 48 5 6 6 12 4 12 -3 0 8 44 25 98 30 102 57 196 63 222 2 8 8 27 13 41 6 15 8 30 5 33 -4 3 -1 6 5 6 6 0 9 6 6 14 -3 8 0 17 5 21 6 3 9 11 5 16 -3 5 -1 15 5 22 5 7 12 25 15 40 2 15 9 41 15 59 23 74 56 184 58 198 2 17 61 218 70 240 3 8 6 18 5 22 -1 4 5 26 13 49 8 23 17 51 20 63 2 12 25 89 49 171 25 83 46 158 46 168 0 9 5 17 11 17 5 0 8 4 4 10 -3 5 1 25 9 45 8 19 13 35 11 35 -2 0 2 18 10 40 8 22 12 40 8 40 -3 0 -1 6 5 13 6 7 13 27 17 44 3 18 10 44 15 58 5 14 12 36 15 48 2 12 14 54 26 92 11 39 24 84 29 100 24 89 97 341 135 465 9 30 19 62 20 70 7 32 96 333 100 341 5 7 -59 29 -225 76 -30 8 -71 20 -90 26 -19 5 -37 10 -40 10 -3 -1 -18 4 -35 11 -16 7 -33 14 -37 14 -5 1 -9 2 -10 3 -2 0 -10 2 -18 4 -8 1 -55 15 -105 29 -49 15 -97 29 -105 31 -8 1 -42 11 -75 21 -33 10 -64 19 -70 20 -5 2 -35 10 -65 19 -90 26 -194 55 -211 60 -13 3 -21 -11 -33 -58z" transform="translate(0.000000,1104.000000) scale(0.100000,-0.100000)"/><path d="M4415 8605 c-82 -58 -154 -108 -160 -112 -5 -5 -39 -28 -75 -52 -92 -63 -124 -85 -130 -91 -3 -3 -26 -19 -52 -35 -27 -17 -48 -33 -48 -37 0 -5 -6 -8 -13 -8 -8 0 -22 -9 -32 -20 -10 -11 -24 -20 -32 -20 -7 0 -13 -4 -13 -9 0 -5 -8 -12 -18 -15 -10 -4 -27 -14 -38 -24 -10 -9 -53 -39 -94 -66 -41 -28 -81 -56 -87 -65 -7 -8 -13 -12 -13 -8 0 5 -6 3 -12 -3 -7 -6 -44 -33 -83 -60 -38 -27 -75 -54 -82 -60 -7 -5 -17 -10 -23 -10 -5 0 -10 -4 -10 -10 0 -5 -4 -10 -10 -10 -5 0 -36 -19 -69 -42 -32 -24 -67 -49 -77 -56 -11 -7 -93 -64 -184 -127 -91 -63 -173 -120 -184 -127 -10 -7 -35 -24 -55 -39 -61 -42 -321 -222 -365 -251 -10 -7 -47 -34 -83 -60 -35 -27 -66 -48 -69 -48 -2 0 -22 -12 -43 -27 -21 -16 -49 -35 -61 -43 -12 -8 -42 -30 -66 -48 -24 -18 -44 -29 -44 -25 0 4 -4 3 -8 -3 -4 -6 -52 -42 -107 -80 -55 -37 -101 -72 -103 -76 -2 -4 -9 -8 -15 -8 -7 0 -23 -9 -37 -20 -43 -35 -149 -110 -156 -110 -3 0 -12 -6 -19 -12 -16 -15 -25 -21 -220 -155 -77 -53 -141 -100 -143 -105 -2 -4 -8 -8 -13 -8 -5 0 -62 -37 -127 -82 -64 -46 -138 -96 -162 -113 -25 -16 -47 -32 -50 -35 -3 -3 -18 -14 -35 -26 -173 -119 -220 -151 -241 -162 -13 -7 -24 -18 -24 -23 0 -6 -4 -7 -10 -4 -5 3 -10 3 -10 -2 0 -4 -12 -15 -28 -25 -15 -9 -72 -48 -127 -87 -55 -39 -107 -74 -115 -78 -8 -4 -17 -9 -20 -13 -6 -7 -191 -137 -234 -163 -16 -10 -35 -25 -43 -33 -8 -8 -19 -14 -24 -14 -27 0 1 -31 73 -80 44 -30 92 -65 106 -77 14 -13 31 -23 38 -23 7 0 14 -4 16 -8 1 -4 66 -52 143 -107 77 -55 142 -102 145 -105 3 -3 12 -9 21 -15 27 -17 69 -46 181 -127 59 -43 112 -78 117 -78 5 0 11 -7 15 -15 3 -8 10 -15 16 -15 5 0 18 -7 27 -15 10 -8 65 -48 123 -89 58 -41 123 -88 145 -104 22 -16 103 -73 180 -128 77 -54 142 -101 145 -104 3 -3 12 -9 22 -15 41 -25 214 -150 220 -159 5 -7 8 -7 8 -1 0 6 3 6 8 0 11 -16 92 -78 92 -70 0 3 10 -4 22 -15 13 -12 44 -35 71 -52 26 -17 47 -35 47 -40 0 -4 6 -8 13 -8 6 0 28 -14 47 -30 19 -16 40 -30 47 -30 6 0 13 -4 15 -8 2 -4 35 -30 73 -57 39 -26 75 -53 80 -59 6 -6 22 -17 36 -24 14 -8 39 -25 55 -38 15 -14 44 -35 64 -47 19 -12 46 -32 60 -44 14 -13 30 -23 37 -23 6 0 13 -3 15 -8 2 -4 89 -68 193 -142 105 -74 196 -140 203 -147 7 -7 17 -13 22 -13 5 0 15 -6 22 -13 7 -7 67 -50 133 -97 66 -46 122 -87 125 -90 3 -3 25 -19 50 -35 25 -17 50 -34 55 -38 8 -6 160 -114 290 -207 71 -51 255 -182 313 -224 35 -25 67 -46 73 -46 5 0 9 -4 9 -10 0 -5 6 -10 14 -10 8 0 16 -3 18 -8 3 -7 102 -79 228 -167 30 -21 59 -42 65 -47 52 -42 205 -145 209 -140 3 3 6 -1 7 -9 1 -8 4 -4 7 9 4 12 5 68 2 123 -3 55 -3 102 -1 105 6 6 4 122 -3 133 -4 5 -2 12 3 15 4 3 5 24 1 46 -4 21 -5 42 -2 44 3 4 5 279 1 304 -1 4 -1 12 0 17 2 10 1 370 0 383 -1 4 -1 12 0 17 5 25 2 125 -3 134 -4 5 -3 12 2 15 8 5 6 89 -3 113 -2 7 0 15 6 19 7 4 7 10 0 18 -6 7 -6 18 -1 25 4 8 5 21 2 30 -8 20 -54 60 -70 61 -7 0 -15 7 -18 15 -4 8 -11 15 -16 15 -5 0 -35 20 -67 45 -31 25 -63 45 -69 45 -7 0 -12 3 -12 8 0 4 -18 18 -40 32 -22 14 -40 28 -40 33 0 4 -4 6 -9 3 -5 -4 -11 -2 -13 2 -1 5 -61 50 -133 101 -71 51 -177 126 -235 167 -408 292 -529 378 -548 389 -9 6 -19 13 -22 16 -3 3 -30 23 -60 44 -123 86 -155 110 -162 120 -5 6 -8 6 -8 0 0 -6 -3 -6 -8 1 -7 11 -64 52 -343 249 -78 55 -150 108 -162 118 -11 9 -24 17 -28 17 -4 0 -14 6 -21 13 -7 7 -48 37 -91 67 -42 29 -77 58 -77 63 0 6 -3 7 -6 4 -4 -4 -24 7 -46 25 -36 28 -38 31 -21 44 26 20 210 148 338 234 61 41 114 80 118 87 4 7 12 13 17 13 6 0 64 38 131 85 66 47 122 85 125 85 2 0 12 7 21 15 10 8 76 54 147 104 71 49 136 94 145 100 9 6 87 60 174 120 87 60 167 117 178 127 10 9 19 14 19 11 0 -6 26 13 55 40 7 7 15 9 19 6 3 -3 8 2 12 11 3 9 10 16 15 16 10 0 143 92 147 102 2 4 8 8 13 8 9 0 68 38 79 51 3 3 23 18 45 32 22 15 59 40 83 57 23 16 45 30 48 30 3 0 11 6 19 13 7 7 46 36 86 63 41 27 76 52 79 55 3 3 20 14 38 24 17 11 32 23 32 27 0 4 4 8 10 8 5 0 37 19 70 43 l60 42 -1 85 c0 47 0 90 1 95 4 31 1 125 -4 134 -4 5 -2 12 4 16 6 4 7 12 0 24 -6 12 -5 22 1 28 8 8 7 13 0 17 -7 5 -8 14 -2 24 4 9 7 26 5 37 -3 20 -6 182 -4 200 4 31 1 125 -4 134 -4 5 -2 12 4 16 6 4 7 12 0 24 -6 12 -5 22 1 28 8 8 7 13 0 17 -7 5 -8 14 -2 24 4 9 7 26 5 37 -3 20 -6 182 -4 200 4 31 1 125 -4 134 -4 5 -2 12 3 15 4 3 5 24 1 46 -4 21 -5 42 -3 44 9 8 5 170 -4 173 -4 1 -75 -45 -158 -102z" transform="translate(0.000000,1104.000000) scale(0.100000,-0.100000)"/><path d="M7989 7568 c-1 -2 -3 -12 -5 -23 -2 -11 -17 -67 -34 -125 -30 -99 -58 -197 -66 -230 -2 -8 -10 -36 -18 -62 -8 -25 -12 -49 -9 -52 4 -3 0 -6 -7 -6 -7 0 -11 -2 -8 -5 3 -3 -10 -58 -29 -123 -19 -64 -36 -124 -38 -133 -3 -14 -21 -80 -31 -117 -2 -7 -3 -13 -3 -15 0 -1 -5 -15 -11 -32 -7 -16 -13 -38 -16 -49 -2 -10 -11 -44 -20 -75 -10 -31 -18 -58 -19 -61 -4 -19 -16 -81 -16 -87 -1 -5 -4 -12 -9 -18 -4 -5 -11 -26 -15 -45 l-6 -36 118 -79 c65 -44 120 -83 123 -86 3 -3 53 -37 112 -76 58 -39 104 -74 101 -77 -4 -3 0 -6 7 -6 15 0 133 -79 138 -92 2 -4 10 -8 18 -8 8 0 14 -4 14 -10 0 -5 6 -10 13 -10 7 0 24 -11 38 -23 13 -13 29 -26 34 -28 30 -13 85 -52 85 -61 0 -5 5 -6 10 -3 6 3 13 -1 16 -9 3 -9 10 -16 15 -16 9 0 65 -36 79 -50 3 -3 38 -27 79 -54 40 -27 79 -56 86 -63 8 -7 16 -13 20 -13 4 0 27 -14 52 -31 l45 -31 -25 -24 c-15 -13 -29 -24 -32 -24 -3 0 -11 -5 -18 -10 -7 -6 -43 -33 -82 -60 -38 -27 -75 -54 -82 -60 -7 -5 -17 -10 -23 -10 -5 0 -10 -3 -10 -8 0 -4 -15 -16 -33 -25 -19 -10 -46 -29 -60 -43 -15 -14 -27 -22 -27 -18 0 4 -10 -2 -22 -13 -13 -11 -60 -45 -105 -76 -46 -31 -89 -61 -95 -67 -7 -5 -42 -30 -78 -55 -36 -24 -112 -77 -170 -117 -58 -39 -107 -74 -110 -78 -3 -3 -23 -17 -45 -30 -22 -13 -44 -29 -50 -35 -5 -6 -41 -32 -80 -58 -38 -26 -90 -61 -114 -78 -24 -17 -87 -60 -140 -97 -53 -36 -98 -68 -101 -71 -12 -14 -101 -71 -110 -71 -6 0 -10 -4 -10 -8 0 -4 -37 -33 -82 -63 -148 -98 -149 -100 -181 -202 -15 -51 -30 -101 -33 -112 -8 -30 -10 -39 -17 -55 -7 -18 -47 -148 -52 -170 -2 -8 -10 -34 -19 -58 -8 -23 -15 -44 -16 -47 0 -3 0 -6 -1 -7 0 -2 -2 -10 -4 -18 -17 -62 -30 -106 -35 -110 -6 -6 -11 -26 -15 -57 -2 -12 -7 -28 -11 -35 -5 -7 -9 -17 -10 -23 -2 -12 -48 -162 -68 -225 -8 -25 -31 -99 -51 -165 -20 -66 -40 -131 -45 -145 -19 -56 -82 -263 -84 -274 -1 -6 -4 -15 -7 -21 -4 -5 -10 -23 -14 -40 -5 -16 -9 -34 -11 -40 -2 -5 -5 -20 -8 -33 -3 -12 -8 -27 -12 -34 -4 -6 -8 -49 -9 -95 l-2 -83 36 22 c20 12 40 28 44 35 4 7 13 13 19 13 5 0 23 10 38 23 15 12 37 29 50 37 12 8 28 21 36 27 7 7 15 13 19 13 3 0 26 15 49 33 24 17 52 38 62 45 20 13 205 143 239 168 39 27 101 71 150 106 28 19 147 103 265 186 118 84 223 158 234 165 10 6 24 17 30 22 6 6 47 35 91 65 44 30 85 58 90 62 6 5 109 78 230 163 121 85 231 164 245 175 14 11 31 20 38 20 7 0 10 5 7 10 -3 6 1 10 9 10 9 0 16 5 16 11 0 5 5 7 10 4 6 -3 13 1 16 9 3 9 10 16 15 16 6 0 15 5 22 11 32 28 379 269 388 269 5 0 12 7 15 15 3 8 14 17 25 20 10 4 25 12 31 19 7 6 36 27 63 46 28 19 55 38 60 42 6 5 51 37 100 72 50 34 142 99 205 144 63 45 122 86 130 92 8 6 94 67 190 135 96 69 182 128 190 132 8 4 19 12 23 20 4 7 12 13 17 13 6 0 29 15 53 33 64 47 107 77 257 182 74 52 140 98 145 102 6 5 39 29 75 53 36 25 71 50 78 57 6 6 21 15 32 18 11 3 20 10 20 15 0 5 11 15 24 22 20 11 295 202 331 230 6 5 32 24 58 44 l49 36 -29 15 c-15 8 -30 18 -33 22 -3 4 -23 18 -45 31 -22 13 -46 30 -52 36 -7 7 -29 22 -50 35 -21 13 -40 26 -43 29 -8 10 -110 80 -115 80 -3 0 -15 9 -27 20 -12 11 -28 20 -35 20 -7 0 -13 4 -13 9 0 5 -17 20 -37 33 -47 30 -66 43 -147 101 -37 26 -71 47 -76 47 -4 0 -10 4 -12 8 -1 5 -19 20 -39 33 -73 48 -194 133 -199 138 -3 3 -12 11 -21 16 -33 20 -204 139 -209 144 -3 3 -12 11 -21 16 -23 14 -409 282 -436 303 -24 18 -210 148 -247 172 -13 8 -65 44 -116 80 -50 36 -99 70 -108 75 -9 6 -19 12 -22 15 -3 3 -27 21 -55 40 -27 19 -51 38 -53 42 -2 4 -8 8 -14 8 -5 0 -20 8 -33 18 -12 9 -33 24 -45 32 -12 8 -48 34 -81 58 -32 23 -63 42 -68 42 -5 0 -11 4 -13 8 -1 4 -55 44 -118 87 -63 43 -116 83 -118 87 -2 4 -9 8 -16 8 -7 0 -21 9 -31 20 -10 11 -24 20 -31 20 -7 0 -14 4 -16 8 -1 4 -39 32 -83 62 -44 30 -89 63 -99 73 -17 14 -43 23 -47 15z" transform="translate(0.000000,1104.000000) scale(0.100000,-0.100000)"/></g></svg>