<?xml version="1.0" standalone="no"?>
<!DOCTYPE svg PUBLIC "-//W3C//DTD SVG 20010904//EN"
 "http://www.w3.org/TR/2001/REC-SVG-20010904/DTD/svg10.dtd">
<svg version="1.0" xmlns="http://www.w3.org/2000/svg"
 width="1000.000000pt" height="1000.000000pt" viewBox="0 0 1000.000000 1000.000000"
 preserveAspectRatio="xMidYMid meet">
<metadata>
Created by potrace 1.11, written by Peter Selinger 2001-2013
</metadata>
<g transform="translate(0.000000,1000.000000) scale(0.100000,-0.100000)"
fill="#000000" stroke="none">
<path d="M5963 8118 c-24 -84 -177 -614 -230 -793 -19 -66 -64 -221 -100 -345
-35 -124 -76 -263 -89 -310 -14 -47 -28 -94 -31 -105 -3 -11 -17 -58 -30 -105
-14 -47 -49 -168 -78 -270 -29 -102 -86 -295 -125 -430 -39 -135 -78 -270 -86
-300 -8 -30 -46 -163 -85 -295 -38 -132 -88 -301 -109 -375 -22 -74 -62 -211
-89 -305 -46 -161 -71 -247 -77 -270 -7 -29 -97 -336 -110 -372 -7 -24 -16
-57 -19 -75 -3 -17 -8 -34 -10 -38 -3 -6 -196 -666 -210 -720 -2 -8 -22 -76
-44 -150 -52 -178 -172 -591 -176 -610 -2 -8 -18 -64 -35 -123 -18 -60 -30
-110 -28 -111 1 -2 44 -14 93 -28 50 -14 208 -60 353 -102 144 -42 268 -76
276 -76 7 0 13 6 13 13 0 6 35 131 78 277 42 146 96 333 120 415 24 83 80 276
125 430 45 154 84 289 87 300 8 28 45 157 108 375 29 102 65 226 79 275 14 50
30 104 35 120 6 17 23 77 40 135 34 120 138 480 206 715 71 244 148 510 240
830 47 160 137 470 201 690 64 220 124 429 134 465 39 141 92 326 97 340 3 8
7 20 8 25 2 6 33 114 70 240 128 439 152 526 146 530 -4 2 -141 42 -306 90
-369 107 -397 115 -411 115 -6 0 -20 -33 -31 -72z"/>
<path d="M4248 7037 c-65 -45 -228 -158 -364 -252 -135 -93 -260 -180 -277
-193 -28 -20 -206 -143 -425 -294 -35 -24 -85 -59 -112 -78 -40 -29 -548 -381
-930 -644 -47 -32 -173 -120 -280 -194 -290 -202 -388 -269 -457 -315 -35 -23
-63 -45 -63 -49 0 -6 6 -11 390 -284 135 -95 254 -180 265 -188 18 -13 168
-120 205 -146 8 -6 247 -175 530 -377 283 -201 686 -488 895 -636 209 -148
398 -283 420 -299 107 -78 320 -228 325 -228 7 0 7 1037 0 1043 -3 3 -252 181
-555 396 -302 215 -559 397 -570 405 -11 8 -110 78 -220 156 -110 78 -201 144
-203 145 -2 2 95 71 215 153 120 83 232 160 248 172 17 12 68 48 115 80 47 33
103 72 125 88 22 16 160 112 308 213 147 101 329 227 405 280 l137 96 0 517
c0 284 -2 516 -5 515 -3 0 -58 -37 -122 -82z"/>
<path d="M6605 6236 c-20 -72 -59 -210 -86 -306 -74 -264 -76 -270 -98 -344
-12 -38 -21 -73 -21 -77 0 -3 64 -51 143 -105 78 -54 171 -118 207 -143 36
-25 146 -101 245 -169 99 -68 185 -129 192 -135 9 -9 -30 -41 -165 -135 -97
-68 -260 -182 -362 -253 -102 -72 -219 -153 -260 -181 -41 -28 -77 -54 -80
-58 -3 -4 -10 -9 -15 -11 -6 -2 -83 -55 -171 -117 -184 -128 -161 -94 -239
-352 -25 -85 -66 -218 -90 -295 -24 -77 -73 -237 -109 -355 -36 -118 -73 -235
-81 -260 -14 -42 -21 -140 -10 -140 3 0 213 147 467 327 255 179 492 347 528
372 64 44 255 179 595 420 94 66 400 282 680 480 281 198 524 369 540 381 17
12 77 55 135 96 58 41 106 78 107 82 1 4 -71 57 -160 119 -277 191 -811 563
-827 576 -9 7 -58 41 -110 76 -52 36 -97 67 -100 70 -3 3 -12 11 -21 16 -10 6
-38 24 -63 42 -25 18 -119 83 -208 145 -90 62 -165 115 -168 118 -3 3 -25 19
-50 35 -24 17 -104 71 -176 121 l-132 92 -37 -132z"/>
</g>
</svg>
