<svg xmlns="http://www.w3.org/2000/svg" class="iconLeft" viewBox="0 0 957 90"><g id="8d01291c-fab3-4f7e-af91-73bf75867c7d" fill="#000"><path d="M14.36 10.64L13.52 10.64L13.52 2.65L8.36 10.64L7.60 10.64L2.43 2.61L2.43 10.64L1.58 10.64L1.58 1.24L2.50 1.24L8.00 9.75L13.45 1.24L14.36 1.24L14.36 10.64ZM26.88 10.64L26.03 10.64L26.03 9.60L26.03 9.60Q25.54 9.86 24.91 10.09L24.91 10.09L24.91 10.09Q24.29 10.32 23.59 10.48L23.59 10.48L23.59 10.48Q22.90 10.64 22.17 10.73L22.17 10.73L22.17 10.73Q21.44 10.82 20.73 10.82L20.73 10.82L20.73 10.82Q19.82 10.82 19.09 10.66L19.09 10.66L19.09 10.66Q18.36 10.49 17.86 10.17L17.86 10.17L17.86 10.17Q17.35 9.84 17.08 9.36L17.08 9.36L17.08 9.36Q16.80 8.88 16.80 8.24L16.80 8.24L16.80 8.24Q16.80 7.62 17.12 7.13L17.12 7.13L17.12 7.13Q17.44 6.65 18.03 6.29L18.03 6.29L18.03 6.29Q18.61 5.93 19.44 5.68L19.44 5.68L19.44 5.68Q20.28 5.43 21.30 5.26L21.30 5.26L21.30 5.26Q22.33 5.09 23.52 4.97L23.52 4.97L23.52 4.97Q24.71 4.86 26.03 4.79L26.03 4.79L26.03 4.07L26.03 4.07Q26.03 3.63 25.87 3.29L25.87 3.29L25.87 3.29Q25.70 2.96 25.41 2.71L25.41 2.71L25.41 2.71Q25.12 2.46 24.72 2.29L24.72 2.29L24.72 2.29Q24.32 2.13 23.86 2.02L23.86 2.02L23.86 2.02Q23.40 1.92 22.89 1.88L22.89 1.88L22.89 1.88Q22.38 1.83 21.87 1.83L21.87 1.83L21.87 1.83Q21.18 1.83 20.61 1.90L20.61 1.90L20.61 1.90Q20.04 1.97 19.55 2.09L19.55 2.09L19.55 2.09Q19.06 2.21 18.61 2.37L18.61 2.37L18.61 2.37Q18.16 2.52 17.70 2.70L17.70 2.70L17.70 1.70L17.70 1.70Q18.65 1.45 19.73 1.26L19.73 1.26L19.73 1.26Q20.80 1.07 22.01 1.07L22.01 1.07L22.01 1.07Q23.04 1.07 23.93 1.25L23.93 1.25L23.93 1.25Q24.81 1.42 25.47 1.80L25.47 1.80L25.47 1.80Q26.13 2.19 26.50 2.79L26.50 2.79L26.50 2.79Q26.88 3.40 26.88 4.27L26.88 4.27L26.88 10.64ZM26.03 8.70L26.03 5.54L26.03 5.54Q23.80 5.67 22.21 5.89L22.21 5.89L22.21 5.89Q20.63 6.12 19.63 6.45L19.63 6.45L19.63 6.45Q18.62 6.77 18.15 7.21L18.15 7.21L18.15 7.21Q17.68 7.65 17.68 8.20L17.68 8.20L17.68 8.20Q17.68 8.65 17.91 9.00L17.91 9.00L17.91 9.00Q18.14 9.35 18.57 9.59L18.57 9.59L18.57 9.59Q19.00 9.82 19.62 9.94L19.62 9.94L19.62 9.94Q20.23 10.06 21 10.06L21 10.06L21 10.06Q21.45 10.06 21.93 10.01L21.93 10.01L21.93 10.01Q22.42 9.96 22.89 9.87L22.89 9.87L22.89 9.87Q23.37 9.78 23.84 9.65L23.84 9.65L23.84 9.65Q24.30 9.52 24.71 9.37L24.71 9.37L24.71 9.37Q25.12 9.22 25.46 9.05L25.46 9.05L25.46 9.05Q25.80 8.88 26.03 8.70L26.03 8.70ZM37.91 2.02L33.63 2.02L33.63 10.64L32.79 10.64L32.79 2.02L28.51 2.02L28.51 1.24L37.91 1.24L37.91 2.02ZM47.83 2.02L43.56 2.02L43.56 10.64L42.71 10.64L42.71 2.02L38.44 2.02L38.44 1.24L47.83 1.24L47.83 2.02ZM60.47 1.07L60.47 1.07L60.47 1.07Q61.12 1.07 61.68 1.14L61.68 1.14L61.68 1.14Q62.24 1.20 62.75 1.32L62.75 1.32L62.75 1.32Q63.27 1.44 63.75 1.61L63.75 1.61L63.75 1.61Q64.24 1.78 64.73 1.98L64.73 1.98L64.73 3.02L64.73 3.02Q64.34 2.78 63.90 2.56L63.90 2.56L63.90 2.56Q63.46 2.34 62.95 2.17L62.95 2.17L62.95 2.17Q62.44 2.01 61.85 1.91L61.85 1.91L61.85 1.91Q61.27 1.82 60.60 1.82L60.60 1.82L60.60 1.82Q59.23 1.82 58.21 2.11L58.21 2.11L58.21 2.11Q57.20 2.39 56.52 2.93L56.52 2.93L56.52 2.93Q55.84 3.46 55.50 4.22L55.50 4.22L55.50 4.22Q55.17 4.99 55.17 5.95L55.17 5.95L55.17 5.95Q55.17 6.84 55.50 7.60L55.50 7.60L55.50 7.60Q55.83 8.35 56.50 8.90L56.50 8.90L56.50 8.90Q57.18 9.45 58.19 9.75L58.19 9.75L58.19 9.75Q59.20 10.06 60.56 10.06L60.56 10.06L60.56 10.06Q61.09 10.06 61.62 10.02L61.62 10.02L61.62 10.02Q62.14 9.98 62.60 9.92L62.60 9.92L62.60 9.92Q63.07 9.85 63.45 9.77L63.45 9.77L63.45 9.77Q63.83 9.69 64.10 9.61L64.10 9.61L64.10 6.76L60.28 6.76L60.28 5.96L64.96 5.96L64.96 10.09L64.96 10.09Q64.45 10.27 63.93 10.40L63.93 10.40L63.93 10.40Q63.42 10.54 62.87 10.63L62.87 10.63L62.87 10.63Q62.32 10.73 61.73 10.77L61.73 10.77L61.73 10.77Q61.13 10.82 60.48 10.82L60.48 10.82L60.48 10.82Q59.16 10.82 58.02 10.52L58.02 10.52L58.02 10.52Q56.89 10.23 56.06 9.62L56.06 9.62L56.06 9.62Q55.23 9.02 54.76 8.10L54.76 8.10L54.76 8.10Q54.28 7.18 54.28 5.95L54.28 5.95L54.28 5.95Q54.28 5.12 54.50 4.44L54.50 4.44L54.50 4.44Q54.72 3.76 55.12 3.22L55.12 3.22L55.12 3.22Q55.52 2.67 56.09 2.27L56.09 2.27L56.09 2.27Q56.65 1.87 57.34 1.60L57.34 1.60L57.34 1.60Q58.02 1.34 58.82 1.21L58.82 1.21L58.82 1.21Q59.61 1.07 60.47 1.07ZM78.96 5.95L78.96 5.95L78.96 5.95Q78.96 7.21 78.50 8.13L78.50 8.13L78.50 8.13Q78.04 9.05 77.24 9.65L77.24 9.65L77.24 9.65Q76.44 10.25 75.35 10.53L75.35 10.53L75.35 10.53Q74.27 10.82 73.01 10.82L73.01 10.82L73.01 10.82Q71.74 10.82 70.65 10.53L70.65 10.53L70.65 10.53Q69.56 10.25 68.75 9.65L68.75 9.65L68.75 9.65Q67.94 9.05 67.48 8.13L67.48 8.13L67.48 8.13Q67.03 7.21 67.03 5.95L67.03 5.95L67.03 5.95Q67.03 5.11 67.24 4.42L67.24 4.42L67.24 4.42Q67.45 3.73 67.83 3.19L67.83 3.19L67.83 3.19Q68.22 2.65 68.76 2.25L68.76 2.25L68.76 2.25Q69.30 1.85 69.97 1.59L69.97 1.59L69.97 1.59Q70.64 1.33 71.40 1.20L71.40 1.20L71.40 1.20Q72.17 1.07 73.01 1.07L73.01 1.07L73.01 1.07Q74.27 1.07 75.35 1.36L75.35 1.36L75.35 1.36Q76.44 1.65 77.24 2.25L77.24 2.25L77.24 2.25Q78.04 2.84 78.50 3.76L78.50 3.76L78.50 3.76Q78.96 4.68 78.96 5.95ZM78.07 5.95L78.07 5.95L78.07 5.95Q78.07 4.95 77.75 4.18L77.75 4.18L77.75 4.18Q77.42 3.42 76.79 2.90L76.79 2.90L76.79 2.90Q76.15 2.37 75.21 2.10L75.21 2.10L75.21 2.10Q74.26 1.83 73.01 1.83L73.01 1.83L73.01 1.83Q71.76 1.83 70.80 2.11L70.80 2.11L70.80 2.11Q69.85 2.38 69.21 2.90L69.21 2.90L69.21 2.90Q68.56 3.42 68.24 4.19L68.24 4.19L68.24 4.19Q67.91 4.96 67.91 5.95L67.91 5.95L67.91 5.95Q67.91 6.95 68.24 7.71L68.24 7.71L68.24 7.71Q68.56 8.48 69.21 9.00L69.21 9.00L69.21 9.00Q69.85 9.52 70.80 9.79L70.80 9.79L70.80 9.79Q71.76 10.06 73.01 10.06L73.01 10.06L73.01 10.06Q74.26 10.06 75.21 9.79L75.21 9.79L75.21 9.79Q76.15 9.52 76.79 9.00L76.79 9.00L76.79 9.00Q77.42 8.48 77.75 7.71L77.75 7.71L77.75 7.71Q78.07 6.95 78.07 5.95ZM89.26 2.02L84.98 2.02L84.98 10.64L84.14 10.64L84.14 2.02L79.86 2.02L79.86 1.24L89.26 1.24L89.26 2.02ZM99.18 2.02L94.91 2.02L94.91 10.64L94.06 10.64L94.06 2.02L89.79 2.02L89.79 1.24L99.18 1.24L99.18 2.02ZM101.88 1.24L101.88 7.39L101.88 7.39Q101.88 8.03 101.99 8.48L101.99 8.48L101.99 8.48Q102.09 8.94 102.42 9.24L102.42 9.24L102.42 9.24Q102.74 9.53 103.36 9.67L103.36 9.67L103.36 9.67Q103.98 9.81 105.01 9.81L105.01 9.81L109.25 9.81L109.25 10.64L104.84 10.64L104.84 10.64Q103.71 10.64 102.97 10.46L102.97 10.46L102.97 10.46Q102.24 10.27 101.80 9.90L101.80 9.90L101.80 9.90Q101.37 9.52 101.20 8.93L101.20 8.93L101.20 8.93Q101.03 8.35 101.03 7.55L101.03 7.55L101.03 1.24L101.88 1.24ZM111.82 10.64L110.97 10.64L110.97 1.24L111.82 1.24L111.82 10.64ZM124.46 9.15L124.46 10.14L124.46 10.14Q123.88 10.32 123.39 10.45L123.39 10.45L123.39 10.45Q122.90 10.58 122.42 10.65L122.42 10.65L122.42 10.65Q121.94 10.73 121.44 10.77L121.44 10.77L121.44 10.77Q120.95 10.81 120.35 10.81L120.35 10.81L120.35 10.81Q118.97 10.81 117.86 10.47L117.86 10.47L117.86 10.47Q116.74 10.14 115.96 9.51L115.96 9.51L115.96 9.51Q115.18 8.89 114.75 8.00L114.75 8.00L114.75 8.00Q114.33 7.11 114.33 6.00L114.33 6.00L114.33 6.00Q114.33 4.93 114.74 4.03L114.74 4.03L114.74 4.03Q115.14 3.14 115.88 2.50L115.88 2.50L115.88 2.50Q116.61 1.85 117.63 1.50L117.63 1.50L117.63 1.50Q118.64 1.14 119.88 1.14L119.88 1.14L119.88 1.14Q121.15 1.14 122.15 1.48L122.15 1.48L122.15 1.48Q123.15 1.83 123.83 2.46L123.83 2.46L123.83 2.46Q124.52 3.10 124.87 4.00L124.87 4.00L124.87 4.00Q125.23 4.91 125.23 6.04L125.23 6.04L125.23 6.25L115.21 6.25L115.21 6.25Q115.29 7.13 115.65 7.83L115.65 7.83L115.65 7.83Q116.01 8.54 116.68 9.03L116.68 9.03L116.68 9.03Q117.35 9.52 118.32 9.79L118.32 9.79L118.32 9.79Q119.29 10.05 120.59 10.05L120.59 10.05L120.59 10.05Q121.15 10.05 121.71 9.97L121.71 9.97L121.71 9.97Q122.28 9.90 122.80 9.77L122.80 9.77L122.80 9.77Q123.32 9.65 123.75 9.48L123.75 9.48L123.75 9.48Q124.18 9.32 124.46 9.15L124.46 9.15ZM115.21 5.51L124.39 5.51L124.39 5.51Q124.34 4.79 124.07 4.14L124.07 4.14L124.07 4.14Q123.79 3.49 123.25 2.99L123.25 2.99L123.25 2.99Q122.71 2.49 121.87 2.19L121.87 2.19L121.87 2.19Q121.03 1.90 119.86 1.90L119.86 1.90L119.86 1.90Q118.76 1.90 117.93 2.19L117.93 2.19L117.93 2.19Q117.11 2.49 116.53 2.98L116.53 2.98L116.53 2.98Q115.96 3.48 115.63 4.13L115.63 4.13L115.63 4.13Q115.30 4.79 115.21 5.51L115.21 5.51ZM137.04 8.05L137.04 8.05L137.04 8.05Q137.04 8.59 136.90 9.00L136.90 9.00L136.90 9.00Q136.75 9.40 136.50 9.69L136.50 9.69L136.50 9.69Q136.24 9.98 135.88 10.16L135.88 10.16L135.88 10.16Q135.52 10.34 135.09 10.45L135.09 10.45L135.09 10.45Q134.66 10.55 134.17 10.60L134.17 10.60L134.17 10.60Q133.68 10.64 133.15 10.64L133.15 10.64L127.73 10.64L127.73 1.24L133.03 1.24L133.03 1.24Q133.43 1.24 133.83 1.28L133.83 1.28L133.83 1.28Q134.24 1.31 134.61 1.40L134.61 1.40L134.61 1.40Q134.98 1.50 135.30 1.66L135.30 1.66L135.30 1.66Q135.62 1.83 135.85 2.09L135.85 2.09L135.85 2.09Q136.09 2.36 136.22 2.73L136.22 2.73L136.22 2.73Q136.36 3.11 136.36 3.62L136.36 3.62L136.36 3.62Q136.36 4.08 136.24 4.42L136.24 4.42L136.24 4.42Q136.13 4.75 135.90 4.99L135.90 4.99L135.90 4.99Q135.67 5.23 135.32 5.38L135.32 5.38L135.32 5.38Q134.96 5.54 134.48 5.63L134.48 5.63L134.48 5.63Q135.17 5.67 135.65 5.86L135.65 5.86L135.65 5.86Q136.14 6.04 136.45 6.35L136.45 6.35L136.45 6.35Q136.75 6.66 136.90 7.09L136.90 7.09L136.90 7.09Q137.04 7.51 137.04 8.05ZM135.56 3.64L135.56 3.64L135.56 3.64Q135.56 3.44 135.53 3.24L135.53 3.24L135.53 3.24Q135.50 3.04 135.41 2.86L135.41 2.86L135.41 2.86Q135.31 2.68 135.13 2.52L135.13 2.52L135.13 2.52Q134.95 2.37 134.63 2.25L134.63 2.25L134.63 2.25Q134.32 2.14 133.86 2.07L133.86 2.07L133.86 2.07Q133.40 2.01 132.75 2.01L132.75 2.01L128.58 2.01L128.58 5.29L132.75 5.29L132.75 5.29Q133.67 5.29 134.22 5.16L134.22 5.16L134.22 5.16Q134.78 5.02 135.07 4.80L135.07 4.80L135.07 4.80Q135.37 4.57 135.46 4.27L135.46 4.27L135.46 4.27Q135.56 3.97 135.56 3.64ZM136.14 8.03L136.14 8.03L136.14 8.03Q136.14 7.50 135.96 7.12L135.96 7.12L135.96 7.12Q135.78 6.75 135.39 6.51L135.39 6.51L135.39 6.51Q135.01 6.27 134.41 6.16L134.41 6.16L134.41 6.16Q133.81 6.04 132.98 6.04L132.98 6.04L128.58 6.04L128.58 9.86L133.10 9.86L133.10 9.86Q133.95 9.86 134.53 9.77L134.53 9.77L134.53 9.77Q135.12 9.67 135.48 9.44L135.48 9.44L135.48 9.44Q135.84 9.22 135.99 8.87L135.99 8.87L135.99 8.87Q136.14 8.52 136.14 8.03Z" transform="matrix(6.153846153846154,0,0,6.153846153846154,113.54503264793982,8.415384650230408)"/></g><g id="02591e57-864f-4979-a87e-5a820eeee1c6" fill="#000" stroke="none"><path d="M10.821 24.951L21 32.193v6.842L1.118 24.891 21 11.118V17.9zM49.039 25.277l-13.224-9.214-1.596 5.649 5.256 3.626-8.064 5.632L29 38.79v.634zM31.52 4.119l4.784 1.384-11.685 40.38-4.785-1.386z" transform="matrix(2.154965805741464,0,0,2.154965805741464,-1.9253115399959952,-8.757304105384797)"/></g></svg>